<?xml version="1.0" encoding="utf-8"?>
<svg viewBox="0 0 929.6 936.3" xmlns="http://www.w3.org/2000/svg">
  <g id="Layer_1-2" data-name="Layer 1" transform="matrix(1, 0, 0, 1, 7.430170059204102, 7.050319194793701)">
    <g>
      <path d="M 477.779 736.17 L 235.081 736.17 L 488.369 34.207 C 490.677 27.781 490.781 19.772 488.579 13.178 C 486.376 6.667 482.239 2.617 477.784 2.617 L 331.824 2.617 C 330.514 2.617 329.258 3.06 328.102 3.763 L 7.053 3.763 C 0.554 3.763 -4.688 12.566 -4.688 23.478 L -4.688 170.609 C -4.688 181.521 0.604 190.325 7.053 190.325 L 255.625 190.325 L -3.483 892.111 C -5.841 898.538 -5.944 906.63 -3.796 913.232 C -1.594 919.835 2.544 923.877 7.053 923.877 L 160.348 923.877 C 161.66 923.877 162.916 923.434 164.121 922.823 L 477.73 922.823 C 484.175 922.823 489.471 914.019 489.471 903.107 L 489.471 755.976 C 489.526 744.98 484.229 736.177 477.784 736.177 L 477.779 736.17 Z" fill="#40C0E7" style="paint-order: stroke; stroke: rgb(54, 228, 25); stroke-width: 6px;"/>
      <path d="M 870.828 486.238 C 827.984 421.743 755.131 367.976 706.932 332.393 C 698.766 326.39 691.397 320.982 685.141 316.161 C 666.954 302.211 642.085 263.583 652.795 219.202 C 660.008 189.196 678.301 174.065 707.25 174.065 C 716.53 174.065 726.711 175.752 737.579 178.967 C 775.333 190.209 803.965 212.693 820.19 225.461 C 822.206 227.068 824.54 227.237 826.657 226.056 C 828.724 224.786 830.473 222.254 831.376 218.952 L 868.545 85.309 C 870.189 79.476 868.918 72.548 865.521 68.997 C 839.324 41.273 773.948 0.106 701.303 0.106 C 690.803 0.106 680.359 0.95 670.176 2.645 C 612.275 12.111 554.268 36.709 522.134 151.757 C 502.092 223.355 502.143 303.994 522.188 362.157 C 543.611 425.639 578.714 454.045 623.147 489.885 L 628.873 494.537 C 660.953 520.067 699.397 548.465 724.691 567.148 C 762.072 595.892 775.913 646.944 767.324 677.713 C 753.483 727.333 722.891 738.238 669.969 714.315 C 623.253 694.113 580.146 637.052 568.108 620.064 C 566.304 617.525 563.919 616.343 561.48 616.85 C 559.095 617.356 556.973 619.558 555.647 622.684 L 498.068 763.415 C 495.895 768.743 496.37 775.758 499.233 780.153 C 529.084 826.054 553.425 852.765 595.579 885.816 C 623.949 908.05 665.468 921.406 706.665 921.406 C 749.722 921.406 854.87 905.511 901.001 758.601 C 930.429 664.599 919.455 565.534 870.828 486.245 L 870.828 486.238 Z" fill="#40C0E7" style="stroke: rgb(26, 216, 36); stroke-width: 5px;"/>
    </g>
  </g>
</svg>