<?xml version="1.0" encoding="utf-8"?>
<svg viewBox="0 0 929.6 936.3" xmlns="http://www.w3.org/2000/svg">
  <g id="Layer_1-2" data-name="Layer 1" transform="matrix(1, 0, 0, 1, 7.430170059204102, 7.050319194793699)">
    <g>
      <path class="cls-1" d="M 497.786 430.958 C 478.921 360.202 498.097 164.536 545.633 50.086 C 546.204 48.711 1033.406 30.02 1073.78 49.328 C 1110.376 66.829 1024.606 117.669 921.954 143.271 C 836.59 164.561 782.047 197.847 775.958 203.196 C 751.892 224.335 714.604 241.901 710.085 270.177 C 702.624 316.866 682.049 362.555 726.239 378.681 C 884.326 436.371 1007.464 562.419 1030.77 630.534 C 1060.892 718.569 928.931 845.22 812.78 902.888 C 720.603 948.653 580.683 956.547 489.063 963.832 C 489.063 963.832 485.292 875.664 485.44 808.935 C 485.5 781.995 838.887 784.058 760.646 623.295 C 749.518 600.43 760.245 606.809 654.327 588.351 C 574.835 574.499 514.536 493.781 497.786 430.958 Z" style="fill: rgb(72, 163, 198); fill-rule: evenodd; transform-box: fill-box; transform-origin: 50% 50%;" transform="matrix(-1, 0, 0, -1, -164.428925, -37.979137)"/>
      <path class="cls-2" d="M 435.12 921.14 L 434.214 586.805 L 3.92 235.355 C 3.92 235.355 397.21 352.679 435.12 349.959 L 435.12 0 C 397.8 2.01 361.77 8.62 327.29 19.02 C 257.781 40.128 14.761 78.284 -116.678 143.832 C -221.308 196.01 -227.516 278.934 -226.879 279.807 C -223.144 284.928 -75.438 364.693 54.38 474.939 C 200.761 599.252 330.053 755.683 311.602 761.874 C 178.29 806.605 -23.238 742.965 -24.28 788.238 C -25.695 849.747 -28.808 919.032 -28.383 919.532 L 434.41 921.26 L 434.88 921.26 L 435.12 921.14 Z" style="fill: rgb(254, 254, 254); fill-rule: evenodd; stroke-width: 10px; stroke: rgb(72, 163, 198); transform-box: fill-box; transform-origin: 50% 50%;" transform="matrix(-1, 0, 0, -1, 226.926971, 0.000061)"/>
    </g>
  </g>
</svg>