<?xml version="1.0" encoding="utf-8"?>
<svg viewBox="0 0 500 500" xmlns="http://www.w3.org/2000/svg">
  <path class="cls-1" d="M 382.083 241.91 C 455.922 307.369 253.674 344.863 235.688 346.153 L 163.99 420.168 C 181.696 419.214 308.453 413.23 343.684 400.091 C 408.81 375.803 488.02 262.532 486.454 250.692 C 483.863 231.102 374.27 187.037 332.129 186.037 C 200.328 182.908 457.6 45.9 457.6 45.9 C 441.294 40.97 362.828 45.434 345.122 44.423 C 345.122 44.423 204.423 118.297 197.009 186.25 C 192.845 224.416 382.083 241.91 382.083 241.91 Z" style="fill: rgb(72, 163, 198); fill-rule: evenodd;"/>
  <path class="cls-2" d="M 243.704 385.146 L 122.273 380.882 L 238.107 253.336 C 238.107 253.336 155.935 107.087 143.489 87.696 C 133.051 71.433 49.259 164.518 42.546 175.86 C 39.515 180.981 149.728 221.731 159.916 236.754 C 166.74 246.816 142.134 259.469 111.193 299.428 C 91.947 324.283 29.725 407.817 30.169 416.423 C 30.919 430.96 250.369 443.643 247.363 441.639 L 243.704 385.146 Z" style="fill: rgb(254, 254, 254); fill-rule: evenodd; stroke: rgb(0, 0, 0); stroke-width: 10px; transform-origin: 138.78px 263.821px;" transform="matrix(-1, 0, 0, -1, 2.949890136719, -44.588104248047)"/>
  <text style="white-space: pre; fill: rgb(51, 51, 51); font-family: Arial, sans-serif; font-size: 26.4px;" x="270.755" y="307.233"><tspan x="270.7550048828125" dy="1em">​</tspan></text>
  <text style="white-space: pre; fill: rgb(51, 51, 51); font-family: Arial, sans-serif; font-size: 26.4px;" x="283.962" y="334.591"> </text>
  <text style="white-space: pre; fill: rgb(51, 51, 51); font-family: Arial, sans-serif; font-size: 26.4px;" x="309.434" y="325.157"> </text>
</svg>